<?xml version="1.0" encoding="UTF-8"?>
<svg id="Calque_1" data-name="Calque 1" xmlns="http://www.w3.org/2000/svg" xmlns:xlink="http://www.w3.org/1999/xlink" viewBox="0 0 1250.96 236.5">
  <defs>
    <style>
      .cls-1 {
        letter-spacing: -.11em;
      }

      .cls-2 {
        letter-spacing: -.02em;
      }

      .cls-3 {
        clip-path: url(#clippath-4);
      }

      .cls-4 {
        fill: url(#linear-gradient-2);
      }

      .cls-5 {
        stroke: #fff;
      }

      .cls-5, .cls-6 {
        fill: #fff;
      }

      .cls-5, .cls-7 {
        font-family: Verdana, Verdana;
        font-size: 18px;
        stroke-miterlimit: 10;
      }

      .cls-8 {
        fill: #97271b;
      }

      .cls-9 {
        fill: none;
      }

      .cls-10 {
        fill: url(#linear-gradient-4);
      }

      .cls-11 {
        fill: url(#linear-gradient-3);
      }

      .cls-12 {
        clip-path: url(#clippath-1);
      }

      .cls-13 {
        fill: #f9b233;
      }

      .cls-14 {
        fill: url(#linear-gradient-5);
      }

      .cls-15 {
        clip-path: url(#clippath-5);
      }

      .cls-16 {
        fill: #2d2e83;
      }

      .cls-17 {
        clip-path: url(#clippath-3);
      }

      .cls-18 {
        fill: #063;
      }

      .cls-19 {
        fill: url(#linear-gradient-6);
      }

      .cls-20 {
        clip-path: url(#clippath-2);
      }

      .cls-7 {
        fill: #1d1d1b;
        stroke: #1d1d1b;
        stroke-width: .5px;
      }

      .cls-21 {
        fill: url(#linear-gradient);
      }

      .cls-22 {
        clip-path: url(#clippath);
      }
    </style>
    <clipPath id="clippath">
      <path class="cls-16" d="M783.85,192.69c146.8,23.56,303.64,38.73,467.11,44.13v-77.56c-58.92-18.4-114.87-38.36-167.37-59.78-90.04,36.08-190.68,67.38-299.74,93.2"/>
    </clipPath>
    <clipPath id="clippath-1">
      <path class="cls-13" d="M349.29,89.38c130.45,42.96,276.72,77.97,434.57,103.31,109.06-25.82,209.7-57.12,299.74-93.2C972.75,54.27,877.01,2.68,799.86-53.86,673.11,5.24,520.39,53.8,349.29,89.38"/>
    </clipPath>
    <clipPath id="clippath-2">
      <path class="cls-18" d="M.88-169.93v103.05C97.14-7.65,214.78,45.09,349.29,89.38,520.39,53.8,673.11,5.24,799.86-53.86c-50.12-36.73-92.36-75.56-125.85-116.06H.88Z"/>
    </clipPath>
    <clipPath id="clippath-3">
      <path class="cls-8" d="M.88,140.98c122.32-11.5,239.14-28.88,348.4-51.6C214.78,45.09,97.14-7.65.88-66.88v207.85Z"/>
    </clipPath>
    <clipPath id="clippath-4">
      <rect class="cls-9" y="-170.92" width="1252.43" height="522.57"/>
    </clipPath>
    <clipPath id="clippath-5">
      <rect class="cls-9" y="-170.92" width="1252.43" height="522.57"/>
    </clipPath>
    <linearGradient id="linear-gradient" x1="1022.72" y1="50.01" x2="1022.72" y2="11.11" gradientUnits="userSpaceOnUse">
      <stop offset="0" stop-color="#4a4a49"/>
      <stop offset="1" stop-color="#2e2d2c"/>
    </linearGradient>
    <linearGradient id="linear-gradient-2" x1="1058.36" x2="1058.36" y2="11.65" xlink:href="#linear-gradient"/>
    <linearGradient id="linear-gradient-3" x1="1089.74" x2="1089.74" y2="11.65" xlink:href="#linear-gradient"/>
    <linearGradient id="linear-gradient-4" x1="1167.2" y1="50.5" x2="1167.2" y2="11.65" xlink:href="#linear-gradient"/>
    <linearGradient id="linear-gradient-5" x1="1192.2" x2="1192.2" y2="11.65" xlink:href="#linear-gradient"/>
    <linearGradient id="linear-gradient-6" x1="1217.29" y1="50.93" x2="1217.29" y2="10.82" xlink:href="#linear-gradient"/>
  </defs>
  <g>
    <path class="cls-16" d="M783.85,192.69c146.8,23.56,303.64,38.73,467.11,44.13v-77.56c-58.92-18.4-114.87-38.36-167.37-59.78-90.04,36.08-190.68,67.38-299.74,93.2"/>
    <g class="cls-22">
      <rect class="cls-16" x="783.85" y="99.48" width="467.11" height="137.34"/>
    </g>
  </g>
  <g>
    <path class="cls-13" d="M349.29,89.38c130.45,42.96,276.72,77.97,434.57,103.31,109.06-25.82,209.7-57.12,299.74-93.2C972.75,54.27,877.01,2.68,799.86-53.86,673.11,5.24,520.39,53.8,349.29,89.38"/>
    <g class="cls-12">
      <rect class="cls-13" x="349.29" y="-53.86" width="734.31" height="246.55"/>
    </g>
  </g>
  <g>
    <path class="cls-18" d="M.88-169.93v103.05C97.14-7.65,214.78,45.09,349.29,89.38,520.39,53.8,673.11,5.24,799.86-53.86c-50.12-36.73-92.36-75.56-125.85-116.06H.88Z"/>
    <g class="cls-20">
      <rect class="cls-18" x=".88" y="-169.93" width="798.98" height="259.3"/>
    </g>
  </g>
  <g>
    <path class="cls-8" d="M.88,140.98c122.32-11.5,239.14-28.88,348.4-51.6C214.78,45.09,97.14-7.65.88-66.88v207.85Z"/>
    <g class="cls-17">
      <rect class="cls-8" x=".88" y="-66.88" width="348.4" height="207.85"/>
    </g>
  </g>
  <g class="cls-3">
    <path class="cls-6" d="M783.71,192.98c147.13,23.61,304.32,38.8,468.17,44.18l.06-.6c-163.77-5.37-320.89-20.55-467.94-44.16l-.28.58Z"/>
  </g>
  <g class="cls-15">
    <path class="cls-6" d="M1083.6,99.48l.3.25c61.27-24.55,117.59-51.32,168.38-80.09l-.37-.21h-.53v140.13h.53l.25-.27c-59.25-18.48-115.5-38.53-168.25-60.05l-.3.25.3.25-.3-.25-.3.24c52.79,21.54,109.08,41.6,168.36,60.09l.78.24V18.71l-.89.51c-50.74,28.74-107.02,55.49-168.24,80.02l-.61.24.61.25.3-.24Z"/>
    <path class="cls-6" d="M1083.6,99.48l-.3-.25c-90.01,36.07-190.62,67.35-299.65,93.17l.2.28.14-.29c-157.8-25.34-304.03-60.34-434.44-103.29l-.26.26.18.28C520.62,54.07,673.39,5.5,800.19-53.63l-.33-.23-.41.19c77.18,56.57,172.96,108.18,283.85,153.41l.3-.24-.3-.25.3.25.3-.25C973.09,54.04,877.39,2.47,800.28-54.05l-.33-.24-.41.2C672.83,4.99,520.16,53.53,349.11,89.09l-1.06.22.98.32c130.49,42.97,276.8,77.99,434.68,103.34l.17.03.17-.04c109.09-25.83,209.77-57.14,299.85-93.23l.61-.25-.61-.25-.3.25Z"/>
    <path class="cls-6" d="M349.29,89.37l-.18-.28C239.76,111.83,122.85,129.22.44,140.71l.09.3h.53V-67.1h-.53l-.38.2C96.51-7.55,214.31,45.29,349.03,89.63l.26-.26-.18-.28.18.28.26-.26C214.92,44.79,97.2-8.01.91-67.3l-.91-.56v209.23l.61-.06c122.47-11.5,239.45-28.89,348.85-51.65l1.07-.22-.98-.32-.26.26Z"/>
  </g>
  <text class="cls-5" transform="translate(58.41 74.07)"><tspan class="cls-2" x="0" y="0">F</tspan><tspan x="9.91" y="0">ormation</tspan></text>
  <text class="cls-5" transform="translate(1028.11 179.57)"><tspan x="0" y="0" xml:space="preserve">    Bien-être</tspan></text>
  <text class="cls-5" transform="translate(679.39 90.37)"><tspan class="cls-1" x="0" y="0">T</tspan><tspan x="9.16" y="0">eam Building</tspan></text>
  <text class="cls-5" transform="translate(308.68 42.01)"><tspan x="0" y="0">Coaching</tspan></text>
  <path class="cls-21" d="M1042.47,50.01h-15.93v-1.92c1.41-.09,2.57-.27,3.5-.54.93-.27,1.39-.6,1.39-1,0-.16-.02-.36-.06-.59-.03-.23-.09-.44-.16-.62l-3.18-8.6h-13.45c-.5,1.26-.91,2.37-1.23,3.3-.32.94-.6,1.8-.85,2.59-.23.78-.4,1.41-.49,1.89-.09.48-.13.88-.13,1.19,0,.72.57,1.28,1.7,1.67,1.13.4,2.42.63,3.84.7v1.92h-14.43v-1.92c.47-.04,1.05-.14,1.75-.31.7-.18,1.28-.41,1.73-.69.72-.49,1.28-.99,1.68-1.53.4-.53.78-1.26,1.16-2.2,1.93-4.81,4.05-10.22,6.38-16.22,2.32-6,4.39-11.35,6.21-16.03h2.16l12.78,33.09c.27.7.58,1.27.92,1.7.34.43.82.86,1.43,1.27.41.25.95.46,1.62.63.66.17,1.23.27,1.67.28v1.92ZM1027.05,34.34l-5.81-14.89-5.72,14.89h11.53Z"/>
  <path class="cls-4" d="M1077.03,50.01h-10.32c-2.29-3.58-4.35-6.68-6.19-9.3-1.84-2.61-3.85-5.31-6-8.08h-3.93v12.16c0,.63.1,1.19.3,1.66.2.48.62.84,1.27,1.1.32.13.89.24,1.7.35.81.11,1.49.17,2.05.19v1.92h-16.21v-1.92c.44-.04,1.06-.1,1.88-.19.82-.09,1.39-.21,1.72-.35.54-.24.93-.58,1.17-1.02.24-.45.36-1.03.36-1.73v-27.74c0-.63-.09-1.19-.27-1.68-.18-.49-.6-.86-1.27-1.11-.45-.16-1.04-.31-1.76-.45-.72-.13-1.33-.22-1.84-.26v-1.92h17.69c1.62,0,3.14.17,4.57.5,1.42.33,2.71.87,3.86,1.61,1.12.72,2.01,1.66,2.68,2.83.66,1.16,1,2.57,1,4.2,0,1.48-.22,2.79-.67,3.92-.45,1.13-1.12,2.12-2,2.95-.81.78-1.78,1.45-2.92,2.01-1.13.57-2.39,1.05-3.75,1.45,1.89,2.5,3.46,4.61,4.71,6.32,1.25,1.71,2.79,3.8,4.61,6.25.79,1.08,1.51,1.88,2.15,2.39.64.52,1.27.93,1.9,1.26.47.23,1.05.42,1.75.54.7.13,1.29.2,1.76.21v1.92ZM1062.82,21.43c0-2.32-.67-4.16-2-5.52-1.34-1.36-3.22-2.04-5.65-2.04h-4.59v16.44h3.54c2.48,0,4.55-.79,6.21-2.39,1.66-1.6,2.49-3.76,2.49-6.49Z"/>
  <path class="cls-11" d="M1105.13,38.61l-.81,11.4h-29.96v-1.92c.43-.04,1.06-.1,1.88-.19.82-.09,1.39-.21,1.72-.35.54-.24.93-.58,1.17-1.02.24-.45.36-1.03.36-1.73v-27.47c0-.61-.1-1.15-.31-1.62-.21-.47-.62-.85-1.23-1.14-.42-.22-1-.43-1.74-.63-.75-.21-1.36-.33-1.85-.37v-1.92h16.18v1.92c-.5.02-1.16.11-1.96.27-.8.16-1.38.31-1.74.43-.61.22-1.03.58-1.25,1.11-.23.52-.34,1.08-.34,1.68v25.76c0,1.19.06,2.11.18,2.77.12.66.39,1.17.82,1.53.42.32,1.03.53,1.85.63.82.1,1.97.15,3.45.15.67,0,1.36-.02,2.08-.06.72-.03,1.41-.11,2.05-.21.63-.11,1.21-.26,1.74-.44.53-.19.92-.43,1.18-.72.74-.83,1.59-2.08,2.58-3.77.98-1.69,1.66-3.05,2.04-4.09h1.92Z"/>
  <path class="cls-10" d="M1186.72,13.57c-.47.02-1.04.12-1.7.31-.67.19-1.22.42-1.65.69-.61.38-1.1.87-1.47,1.46-.37.59-.74,1.3-1.09,2.11-1.21,2.87-3.02,7.33-5.43,13.4-2.41,6.07-4.9,12.39-7.45,18.96h-2.25c-2.59-6.98-5.09-13.7-7.51-20.17-2.41-6.47-4.05-10.84-4.91-13.11-.22-.56-.5-1.05-.87-1.47-.36-.42-.84-.83-1.43-1.2-.49-.31-1.03-.54-1.62-.69-.6-.15-1.14-.25-1.65-.29v-1.92h15.86v1.92c-1.35.07-2.49.21-3.42.41-.93.2-1.39.55-1.39,1.05,0,.2.03.43.11.7.07.27.13.49.19.65.67,1.77,1.75,4.65,3.24,8.64,1.5,3.99,3.62,9.68,6.37,17.06,1.37-3.34,2.95-7.28,4.73-11.82,1.78-4.54,2.98-7.67,3.6-9.36.59-1.64.94-2.78,1.04-3.41.1-.63.15-1.14.15-1.54s-.19-.76-.56-1.04c-.37-.28-.86-.52-1.47-.72-.59-.18-1.2-.32-1.81-.41-.61-.09-1.24-.16-1.87-.22v-1.92h14.26v1.92Z"/>
  <path class="cls-14" d="M1200.83,50.01h-17.26v-1.92c.49-.04,1.19-.09,2.11-.16.92-.07,1.56-.18,1.95-.32.59-.23,1.02-.55,1.29-.96.27-.4.41-.96.41-1.69v-27.79c0-.63-.1-1.16-.29-1.58-.2-.42-.67-.78-1.41-1.07-.54-.22-1.22-.42-2.05-.61-.82-.19-1.49-.3-2.01-.34v-1.92h17.26v1.92c-.56.02-1.22.09-2,.2-.77.12-1.45.27-2.02.45-.69.22-1.14.57-1.38,1.06-.24.48-.35,1.03-.35,1.62v27.76c0,.59.13,1.12.39,1.58.26.46.7.82,1.34,1.09.37.15.99.3,1.85.47.86.17,1.58.27,2.17.28v1.92Z"/>
  <path class="cls-19" d="M1218.36,50.93c-2.29,0-4.48-.45-6.57-1.35-2.09-.9-3.95-2.2-5.57-3.89-1.6-1.69-2.88-3.77-3.83-6.21-.96-2.44-1.43-5.2-1.43-8.26s.46-5.85,1.4-8.35c.93-2.5,2.23-4.65,3.88-6.45,1.64-1.78,3.58-3.16,5.8-4.14,2.23-.97,4.61-1.46,7.15-1.46,1.89,0,3.6.24,5.13.7,1.53.47,2.98,1.13,4.37,1.97l1.1-1.84h2.16l.24,13.68h-2.21c-.29-1.33-.72-2.78-1.29-4.34-.58-1.56-1.26-2.88-2.02-3.96-.87-1.22-1.89-2.19-3.08-2.88-1.19-.69-2.54-1.04-4.07-1.04-1.75,0-3.37.39-4.87,1.16-1.5.78-2.8,1.92-3.89,3.44-1.05,1.46-1.86,3.32-2.46,5.57-.59,2.25-.89,4.77-.89,7.55,0,2.45.31,4.7.93,6.75.62,2.05,1.51,3.85,2.65,5.4,1.16,1.53,2.51,2.73,4.09,3.6,1.57.87,3.33,1.3,5.28,1.3,1.45,0,2.79-.23,4.02-.69,1.22-.46,2.28-1.07,3.18-1.83.9-.79,1.69-1.69,2.37-2.7.68-1.01,1.24-2.11,1.67-3.3l2.02.97c-1.54,3.8-3.59,6.52-6.15,8.15-2.55,1.63-5.59,2.45-9.12,2.45Z"/>
  <g>
    <path class="cls-8" d="M1109.59,21.69h0s.06.07.08.11c.08.1.15.19.23.28.03.03.07.07.1.11.09.1.19.19.29.29.04.03.07.07.11.1.1.09.21.18.32.26.04.03.08.06.12.09.11.08.23.16.35.23.04.02.07.04.11.06.11.07.23.13.34.18.04.02.08.04.11.05.12.05.24.1.37.15.04.02.08.03.12.04.14.04.27.08.41.12.04.01.09.02.13.03.14.03.28.05.43.07.04,0,.09,0,.13.01.15.01.3.02.46.02h0s.01,0,.02,0c2.93,0,5.32-2.57,5.43-5.78h0c0-.08,0-.16,0-.25,0-.19,0-.38-.02-.57,0-.07-.02-.14-.02-.21,0-.11-.03-.23-.04-.34-.01-.09-.03-.17-.05-.25-.02-.09-.04-.17-.06-.26-.03-.1-.05-.19-.08-.29-.02-.06-.04-.11-.06-.17-.19-.57-.45-1.1-.78-1.57,0,0,0,0,0,0h0c-1-1.44-2.56-2.37-4.32-2.37-3.01,0-5.45,2.7-5.45,6.03,0,1.44.46,2.76,1.22,3.8h0Z"/>
    <path class="cls-8" d="M1128.56,11.87c-3.62,0-7.03.79-10.03,2.19.71,1.06,1.13,2.37,1.14,3.79,3.68-2.52,8.26-4.01,13.23-4.01,2.69,0,5.27.44,7.65,1.24-3.45-2.03-7.56-3.21-11.99-3.21Z"/>
    <path class="cls-8" d="M1110.98,33.59c0-3.34.92-6.48,2.54-9.23-1.67-.09-3.16-.96-4.17-2.29-1.75,2.84-2.75,6.11-2.75,9.59,0,8.62,6.13,15.96,14.66,18.66-6.18-3.49-10.28-9.68-10.28-16.73Z"/>
  </g>
  <g>
    <path class="cls-16" d="M1151.34,33.03h0s-.07-.03-.1-.04c-.09-.04-.18-.07-.27-.1-.04-.01-.08-.03-.11-.04-.1-.03-.2-.06-.31-.09-.04,0-.08-.02-.12-.03-.1-.02-.21-.04-.32-.06-.04,0-.08-.01-.12-.02-.11-.01-.22-.02-.33-.03h-.11c-.11,0-.21,0-.31,0-.03,0-.06,0-.1,0-.11,0-.21.02-.31.04-.04,0-.07.01-.1.02-.11.02-.22.05-.33.08-.04.01-.07.02-.11.03-.11.04-.22.08-.33.12-.03.01-.06.03-.09.04-.11.05-.22.1-.32.16h0s-.02,0-.02,0c-2.04,1.15-2.7,3.87-1.53,6.15h0c.03.06.05.12.09.18.07.13.15.26.24.38.03.05.06.09.09.14.05.07.11.15.17.22.04.05.09.11.13.16.05.06.09.11.14.16.05.06.11.11.17.17.04.03.08.06.11.1.36.32.75.58,1.16.78h0c1.26.61,2.71.65,3.93-.04,2.09-1.18,2.74-4.01,1.44-6.33-.56-1-1.4-1.74-2.34-2.17h0Z"/>
    <path class="cls-16" d="M1141.96,47.3c2.52-1.42,4.59-3.31,6.14-5.46-.91-.46-1.71-1.21-2.28-2.19-1.58,3.19-4.19,6.03-7.65,7.97-1.88,1.05-3.85,1.76-5.82,2.13,3.19.07,6.53-.72,9.61-2.45Z"/>
    <path class="cls-16" d="M1145.72,25.29c1.3,2.33,1.89,4.87,1.84,7.43,1.2-.59,2.58-.57,3.8-.04.11-2.66-.47-5.33-1.83-7.76-3.38-6.01-10.51-8.72-17.52-7.26,5.67.01,10.95,2.72,13.71,7.63Z"/>
  </g>
  <g>
    <path class="cls-18" d="M1123.76,23.86s0,0,0,0c0,.03,0,.05,0,.08,0,.07,0,.14.01.21,0,.03,0,.06,0,.09,0,.08.02.16.03.24,0,.03.01.06.02.09.02.08.04.16.06.24,0,.03.02.06.03.09.02.08.05.16.08.23.01.03.02.05.03.07.03.07.07.14.1.21.01.02.02.04.04.06.03.07.07.14.12.2.01.02.03.04.04.06.05.07.1.14.15.2.02.02.04.04.05.06.06.06.12.13.18.19.02.02.04.04.06.05.07.06.13.12.21.17h0s0,0,0,0c1.41,1.05,3.47.67,4.67-.84h0s.06-.07.09-.11c.07-.09.13-.18.19-.28.02-.03.04-.07.06-.1.03-.06.07-.12.1-.18.02-.05.05-.09.07-.14.02-.05.04-.1.06-.15.03-.05.05-.11.06-.17.02-.03.02-.07.04-.1.11-.34.17-.69.18-1.03h0c.03-1.05-.38-2.05-1.23-2.68-1.44-1.07-3.57-.65-4.76.95-.51.69-.77,1.49-.77,2.26h0Z"/>
    <path class="cls-18" d="M1136.37,25.92c-1.74-1.29-3.66-2.13-5.6-2.53-.04.76-.3,1.54-.81,2.23,2.66.1,5.4,1.02,7.78,2.8,1.3.96,2.37,2.1,3.23,3.33-.93-2.21-2.49-4.24-4.61-5.82Z"/>
    <path class="cls-18" d="M1120.19,30.07c1.19-1.6,2.75-2.78,4.51-3.53-.77-.64-1.17-1.59-1.18-2.59-1.86.74-3.5,1.95-4.74,3.62-3.07,4.14-2.75,9.85.39,14.19-1.72-3.88-1.49-8.32,1.02-11.7Z"/>
  </g>
  <g>
    <path class="cls-13" d="M1132.99,44.43h0s0-.04,0-.06c0-.05,0-.1,0-.15,0-.02,0-.04,0-.06,0-.06,0-.11,0-.17,0-.02,0-.04,0-.06,0-.06-.01-.12-.03-.17,0-.02,0-.04-.01-.06-.02-.06-.03-.11-.05-.17,0-.02-.01-.03-.02-.05-.02-.05-.03-.1-.06-.15,0-.01-.01-.03-.02-.05-.02-.05-.05-.1-.08-.14-.01-.02-.02-.03-.02-.05-.03-.05-.07-.1-.1-.15-.01-.01-.02-.03-.04-.04-.03-.05-.07-.09-.11-.14-.01-.01-.02-.02-.04-.04-.04-.05-.08-.09-.13-.13h0s0,0,0,0c-.91-.8-2.35-.65-3.26.32h0s-.05.05-.07.08c-.05.06-.1.12-.14.18-.02.02-.04.05-.05.07-.03.04-.05.08-.08.12-.02.03-.04.06-.05.09-.02.03-.04.06-.05.1-.02.04-.04.07-.05.11-.01.02-.02.05-.03.07-.09.23-.16.46-.18.7h0c-.08.72.15,1.43.7,1.91.94.82,2.43.64,3.33-.39.39-.45.61-.98.65-1.51h0Z"/>
    <path class="cls-13" d="M1124.41,42.32c1.13.99,2.4,1.67,3.72,2.05.07-.53.3-1.05.68-1.49-1.83-.22-3.66-1-5.21-2.36-.83-.73-1.52-1.58-2.04-2.47.52,1.57,1.48,3.06,2.86,4.27Z"/>
    <path class="cls-13" d="M1135.79,40.35c-.91,1.04-2.05,1.76-3.31,2.18.5.48.73,1.16.68,1.85,1.32-.41,2.52-1.15,3.46-2.24,2.35-2.68,2.44-6.63.51-9.8.98,2.77.57,5.81-1.35,8.01Z"/>
  </g>
  <text class="cls-7" transform="translate(1116.64 89.38)"><tspan x="0" y="0" xml:space="preserve"> Contact</tspan></text>
</svg>